<?xml version="1.0" encoding="iso-8859-1"?>
<!-- Generator: Adobe Illustrator 19.0.0, SVG Export Plug-In . SVG Version: 6.00 Build 0)  -->
<svg version="1.1" id="Layer_1" xmlns="http://www.w3.org/2000/svg" xmlns:xlink="http://www.w3.org/1999/xlink" x="0px" y="0px"
	 viewBox="0 0 496.2 496.2" style="enable-background:new 0 0 496.2 496.2;" xml:space="preserve">
<path style="fill:#A3D5E0;" d="M248.1,0C111.1,0,0,111.1,0,248.1s111.1,248.1,248.1,248.1s248.1-111.1,248.1-248.1S385.1,0,248.1,0z
	"/>
<path style="fill:#DBA161;" d="M418.5,382.8c-8.5-27.3-81.2-49.3-170.8-49.3s-161.5,22-170,49.3c-2.6,8.5-5.5,22.2-8.3,37.4
	c45.1,46.9,108.5,76,178.7,76s133.6-29.2,178.7-76C424.1,405,421.2,391.2,418.5,382.8z"/>
<path style="fill:#A07253;" d="M202.1,282.1c0,0,7.7,29,7.7,66.9c5.7,27.5,71.1,27.2,76.8-0.5c0-38,7.5-66.5,7.5-66.5h-92V282.1z"/>
<path style="fill:#B27E5B;" d="M248.1,72.6c-48.7,0-88.3,10.2-88.3,102.6c0,31.3,8,76.7,16.5,95.9c14.6,32.8,53.8,47.3,71.8,47.3
	s57.2-15.3,71.8-47.3c8.7-19.1,16.5-64.6,16.5-95.9C336.4,82.8,296.8,72.6,248.1,72.6z"/>
<path style="fill:#261D17;" d="M284.1,261.6c0-5.3-15.7-8.1-33.1-8.9c-0.8,0-2.8,1.9-2.9,1.9c-0.2,0-2-2-2.8-1.9
	c-17.4,0.8-33.2,3.6-33.2,8.9c0,1.7-1.3,13.7,4.8,10.2c5-6.5,16.2-11.4,28.2-11.9c1,0,2,0.8,3,0.8c1.1,0,2.1-0.8,3.1-0.8
	c12,0.5,22.6,4.6,28.1,11.9C285.4,275.3,284.1,263.3,284.1,261.6z"/>
<path style="fill:#9E6E4D;" d="M260.9,263.6c-3.7-0.7-12.8,1.7-12.8,1.7s-9.3-2.4-13-1.7c-5.9,1.1-14.7,9.4-14.7,11.4
	c0,3.3,12.4,7.8,27.7,7.8s27.7-4.5,27.7-7.8C275.8,275,266.9,264.7,260.9,263.6z"/>
<path style="fill:#896045;" d="M248.1,269.3c-16.4,0-27.7,5.7-27.7,5.7c0,3.3,12.4,7.8,27.7,7.8s27.7-4.5,27.7-7.8
	C275.8,275,264.5,269.3,248.1,269.3z"/>
<path style="fill:#261D17;" d="M248.1,66.4c-46.3,0-88.3,16.3-88.3,108.8c0,4.5,16.6,3,16.6,3c1-11.7,6.5-26.7,9.5-31.2
	c1-1.5,2.1,5.7,3.8,4.7c2.9-1.7,6.9-6.1,10-7.9c26.9-16.2,61.8-22.6,85.6-22.6c33.7,0,50.9,69.7,50.9,54.1
	C336.4,82.8,294.4,66.4,248.1,66.4z"/>
<g>
	<path style="fill:#876249;" d="M257.6,204.2c0-11.4-3.8-14.4-3.8-14.4c2.2,8.3,2,15.2,2.3,21.7c0.4,9.3,4.2,14.6,4.2,14.6
		C258.7,222.2,257.6,215.6,257.6,204.2z"/>
	<path style="fill:#876249;" d="M230,235.3c0,0-6.5,12.7,5.1,11.5C235.1,246.9,227.5,244.5,230,235.3z"/>
	<path style="fill:#876249;" d="M267.3,235.3c2.5,9.1-5.1,11.5-5.1,11.5C273.8,248.7,267.3,235.3,267.3,235.3z"/>
</g>
<g>
	<path style="fill:#261D17;" d="M180.1,141.8l-14.6-1c-4.2,10.9-5.6,24.4-5.6,37.5c0,0,8.8-1.9,8.8,2.6l2.8,27.6l3.9-1.9
		C175,183.6,180.1,141.8,180.1,141.8z"/>
	<path style="fill:#261D17;" d="M330.8,140.8l-14.6-0.4c0,0,5.1,43.2,4.9,66.2l3.9,1.9l2.8-27.6c0-4.5,8.8-2.6,8.8-2.6
		C336.5,165.1,335.1,151.7,330.8,140.8z"/>
</g>
<g>
	<path style="fill:#B27E5B;" d="M161.4,178c-8.4,1.4-14.9,5.1-10.1,32.9s10.7,29.1,19.1,27.7L161.4,178z"/>
	<path style="fill:#B27E5B;" d="M334.9,178l-9,60.6c8.4,1.4,14.3,0.1,19.1-27.7C349.7,183.1,343.3,179.5,334.9,178z"/>
</g>
<path style="fill:#261D17;" d="M313.6,169.4c-8.6-7.3-22-6.8-29.2-5.9c-1.2,0.2-2.4,0.3-3.6,0.6c-0.4,0.1-1,1.3-1,1.3
	s-0.6-1-0.9-0.9c-5.7,1.2-10.3,2.9-12.6,4.3l-0.4,0.2c-2.6,1.5-5.9,3.5-3.9,8.5c1,2.6,2.8,3.9,4.9,3.6c0.4-0.1,0.9-0.2,1.4-0.4
	c0.6-0.3,1.3-0.7,2.1-1.2c0.4-0.3,0.8-0.6,1.2-0.8c0.5-0.3,1-0.6,1.6-0.9c0.6-0.3,1.7-3.2,1.7-3.2s1.8,1.6,2.6,1.3
	c3.2-1.2,6.8-2.1,10.6-2.6c10.2-1.3,18.9,0.4,21.1,1.1c1.6,0.5,2.8,0.7,3.7,0.6c1.7-0.2,2.1-1.5,2.3-2.1
	C315.2,171.8,314.7,170.4,313.6,169.4z"/>
<path style="fill:#EADAD0;" d="M285.6,184.8c-9.9-0.2-19.7,8.6-19.7,8.6s7.7,6.9,17.6,7.8c11.2,1,19.4-9.8,19.4-9.8
	S297.1,185,285.6,184.8z"/>
<circle style="fill:#38251A;" cx="285.3" cy="191.8" r="8"/>
<g>
	<path style="fill:#876249;" d="M283.5,201.1c-9.9-0.9-17.6-7.8-17.6-7.8s7.6,10.1,17.6,10.1c17.7,0,19.4-12.1,19.4-12.1
		S294.8,202.1,283.5,201.1z"/>
	<path style="fill:#876249;" d="M285.6,180.8c-13,0-19.7,12.6-19.7,12.6s9.8-8.8,19.7-8.6c11.5,0.3,17.3,6.6,17.3,6.6
		S300.9,180.8,285.6,180.8z"/>
</g>
<path style="fill:#261D17;" d="M230.3,169l-0.4-0.2c-2.3-1.4-6.9-3.1-12.6-4.3c-0.2-0.1-0.9,0.9-0.9,0.9s-0.6-1.2-1-1.3
	c-1.2-0.2-2.4-0.4-3.6-0.6c-7.2-0.9-20.6-1.4-29.2,5.9c-1.1,1-1.7,2.3-1.4,3.6c0.1,0.6,0.6,1.9,2.3,2.1c0.9,0.1,2.1-0.1,3.7-0.6
	c2.2-0.7,10.9-2.5,21.1-1.1c3.8,0.5,7.3,1.3,10.6,2.6c0.8,0.3,2.6-1.3,2.6-1.3s1,2.9,1.7,3.2c0.5,0.3,1,0.6,1.6,0.9
	c0.4,0.2,0.8,0.5,1.2,0.8c0.8,0.5,1.5,1,2.1,1.2c0.5,0.2,0.9,0.3,1.4,0.4c2.1,0.3,3.8-1.1,4.9-3.6
	C236.1,172.4,232.9,170.5,230.3,169z"/>
<path style="fill:#EADAD0;" d="M210.6,184.8c-11.5,0.3-17.3,6.6-17.3,6.6s8.2,10.8,19.4,9.8c9.9-0.9,17.6-7.8,17.6-7.8
	S220.5,184.5,210.6,184.8z"/>
<circle style="fill:#38251A;" cx="210.9" cy="191.8" r="8"/>
<g>
	<path style="fill:#876249;" d="M212.7,201.1c-11.2,1-19.4-9.8-19.4-9.8s1.7,12.1,19.4,12.1c10,0,17.6-10.1,17.6-10.1
		S222.6,200.2,212.7,201.1z"/>
	<path style="fill:#876249;" d="M210.6,180.8c-15.3,0-17.3,10.6-17.3,10.6s5.9-6.3,17.3-6.6c9.9-0.2,19.7,8.6,19.7,8.6
		S223.6,180.8,210.6,180.8z"/>
</g>
<g>
	<path style="fill:#8C5C22;" d="M418.5,382.8c-7-22.6-58.1-41.6-126.4-47.5v157c52.5-9.4,99.2-35.3,134.7-72.1
		C424.1,405,421.2,391.2,418.5,382.8z"/>
	<path style="fill:#8C5C22;" d="M77.7,382.8c-2.6,8.5-5.5,22.2-8.3,37.4c35.5,36.8,82.2,62.7,134.7,72.1v-157
		C135.6,341,84.7,360.1,77.7,382.8z"/>
</g>
<g>
</g>
<g>
</g>
<g>
</g>
<g>
</g>
<g>
</g>
<g>
</g>
<g>
</g>
<g>
</g>
<g>
</g>
<g>
</g>
<g>
</g>
<g>
</g>
<g>
</g>
<g>
</g>
<g>
</g>
</svg>
