<?xml version="1.0" encoding="iso-8859-1"?>
<!-- Generator: Adobe Illustrator 19.0.0, SVG Export Plug-In . SVG Version: 6.00 Build 0)  -->
<svg version="1.1" id="Layer_1" xmlns="http://www.w3.org/2000/svg" xmlns:xlink="http://www.w3.org/1999/xlink" x="0px" y="0px"
	 viewBox="0 0 496.2 496.2" style="enable-background:new 0 0 496.2 496.2;" xml:space="preserve">
<path style="fill:#EDC92F;" d="M248.1,0C111.1,0,0,111.1,0,248.1s111.1,248.1,248.1,248.1s248.1-111.1,248.1-248.1S385.1,0,248.1,0z
	"/>
<path style="fill:#9B6123;" d="M418.5,382.8c-8.5-27.3-81.2-49.3-170.8-49.3s-161.5,22-170,49.3c-2.6,8.5-5.5,22.2-8.3,37.4
	c45.1,46.9,108.5,76,178.7,76s133.6-29.2,178.7-76C424.1,405,421.2,391.2,418.5,382.8z"/>
<path style="fill:#684F30;" d="M247.8,333.4c-29.8,0-57.4,3.3-80.4,8.9c2.6,48.1,17.2,120.4,80.9,120.4c63.6,0,78-72.1,80.6-120.2
	C305.6,336.8,277.8,333.4,247.8,333.4z"/>
<g>
	<polygon style="fill:#441E0C;" points="179.6,218.1 127.3,209.1 133.4,345.1 248.1,337.1 	"/>
	<polygon style="fill:#441E0C;" points="316.7,218.1 248.2,337.1 363.2,343.6 369,209.1 	"/>
</g>
<path style="fill:#7F6139;" d="M247.8,333.4c-23.3,0-45.3,2-64.7,5.6c2.2,38.8,13.9,96.9,65.2,96.9c51.2,0,62.9-58,65-96.8
	C293.5,335.5,271.3,333.4,247.8,333.4z"/>
<path style="fill:#A07252;" d="M304.9,269.8H191.3c17.7,46.3,1.4,68.3,1.4,68.3l2.5,9.6H301l2.5-9.6
	C303.5,338,287.2,316.1,304.9,269.8z"/>
<path style="fill:#51250D;" d="M133.1,343.6l-10.8,21.7l53,1.5l19.4-31.3c0,0,2.1-3.4,3.5-9.6c1-4.8,1.2-10.3,1.2-10.3L133.1,343.6z
	"/>
<path style="fill:#A07252;" d="M247.8,333.4c-18.9,0-36.9,1.3-53.5,3.7c0.3,21.9,7.1,64.1,53.9,64.1s53.4-42.1,53.7-64
	C285.2,334.8,266.9,333.4,247.8,333.4z"/>
<polygon style="fill:#602F0F;" points="122.3,365.3 124.4,408.8 155.3,408.8 175.3,366.8 "/>
<polygon style="fill:#B53508;" points="155.3,408.8 124.4,408.8 124.4,414.8 154.8,415.1 155.9,411.9 "/>
<polygon style="fill:#602F0F;" points="154.8,415.1 124.4,414.8 119.7,454.9 139.1,444.1 156.6,454.4 "/>
<path style="fill:#FFF4E3;" d="M129.7,96.3c-25.4-13.2-34.2-9.5-38.5-1.3c-4.2,8.1-2.3,17.5,23.1,30.8
	c25.4,13.2,64.6,25.3,68.8,17.2C187.4,134.7,155,109.5,129.7,96.3z"/>
<path style="fill:#474746;" d="M136.5,100c-2.3-1.3-4.6-2.6-6.9-3.8c-25.4-13.2-34.2-9.5-38.5-1.3c-4.2,8.1-2.3,17.5,23.1,30.8
	c2.2,1.2,4.6,2.3,7,3.5c4.9-2.1,8.5-6.8,11.5-12.6C135.8,110.9,137.6,105.3,136.5,100z"/>
<path style="fill:#CECDCC;" d="M160.9,130.4c-7.4-4.1-14.9-8-22.5-12c-7.5-3.9-15.1-7.8-22.7-11.6c-7.6-3.8-15.2-7.5-22.9-11.1
	c7.3,4.3,14.7,8.4,22.2,12.5c7.4,4.1,15,8,22.5,12c7.5,3.9,15.1,7.8,22.7,11.6c7.6,3.8,15.2,7.5,22.9,11.1
	C175.8,138.6,168.4,134.5,160.9,130.4z"/>
<path style="fill:#FFF4E3;" d="M181.9,69.1c-8.6-27.3-17.5-30.9-26.3-28.1c-8.7,2.8-14,10.8-5.4,38.1s27.8,63.5,36.5,60.8
	C195.5,137.1,190.5,96.4,181.9,69.1z"/>
<path style="fill:#474746;" d="M181.9,69.1c-8.6-27.3-17.5-30.9-26.3-28.1c-8.7,2.8-14,10.8-5.4,38.1c0.8,2.4,1.6,4.9,2.5,7.4
	c5,2,10.8,1.2,17-0.8c6.2-1.9,11.4-4.6,14.4-9.1C183.4,74,182.6,71.5,181.9,69.1z"/>
<path style="fill:#CECDCC;" d="M179.8,115.3c-2.4-8.1-4.9-16.2-7.4-24.3c-2.6-8.1-5.1-16.2-7.8-24.2c-2.7-8.1-5.5-16.1-8.4-24
	c2.2,8.2,4.5,16.4,6.9,24.5s4.9,16.2,7.4,24.3c2.6,8.1,5.2,16.2,7.8,24.2c2.7,8.1,5.5,16.1,8.4,24
	C184.5,131.6,182.2,123.5,179.8,115.3z"/>
<path style="fill:#B27E5B;" d="M248.1,80.6c-45.4,0-82.3,19.7-82.3,105.9c0,29.1,12.1,69,20,86.6c17.4,38.8,46.3,37.3,62.3,37.3
	s44.8,1.5,62.3-37.3c7.9-17.6,20-57.4,20-86.6C330.4,100.4,293.5,80.6,248.1,80.6z"/>
<g>
	<path style="fill:#472B14;" d="M318.1,155.6c-8.2-7.8-22.8-8.9-30.8-8.9c-1.4,0-2.7,0-4,0.1c-0.4,0-1.3,1.1-1.3,1.1s-0.5-1-0.8-0.9
		c-6.3,0.4-11.6,1.5-14.3,2.5l-0.4,0.2c-3,1.1-6.8,2.5-5.4,7.4c0.7,2.5,2.5,3.9,4.8,3.9c0.5,0,1-0.1,1.5-0.2
		c0.7-0.2,1.6-0.5,2.4-0.9c0.5-0.2,1-0.4,1.4-0.6c0.6-0.2,1.2-0.4,1.8-0.6c0.7-0.2,2.3-2.8,2.3-2.8s1.7,1.7,2.6,1.5
		c3.7-0.7,7.6-1.1,11.8-1.1c11.2,0,20.4,2.6,22.7,3.6c1.7,0.7,2.9,1,3.9,1c1.9,0,2.5-1.2,2.7-1.6
		C319.6,157.9,319.2,156.6,318.1,155.6z"/>
	<path style="fill:#472B14;" d="M229.6,149.5l-0.4-0.2c-1.3-0.5-3.3-1-5.8-1.4c-0.9-0.2-2.9,1.4-2.9,1.4s-0.8-1.9-1.2-2
		c-3.1-0.4-6.7-0.6-10.4-0.6c-8,0-22.6,1.2-30.8,8.9c-1.1,1-1.5,2.3-1,3.5c0.2,0.5,0.9,1.6,2.7,1.6c1,0,2.3-0.3,3.9-1
		c2.3-0.9,11.4-3.6,22.7-3.6c6.8,0,13.1,1,18.5,2.9c0.4,0.2,0.9,0.4,1.4,0.6c0.9,0.4,1.7,0.7,2.4,0.9c0.5,0.1,1,0.2,1.5,0.2
		c2.3,0,4-1.4,4.8-3.9C236.5,152,232.7,150.6,229.6,149.5z"/>
</g>
<path style="fill:#91694D;" d="M196,181.6c0,0,24.9,15.5,36.1-3C232.1,178.6,213.6,159.7,196,181.6z"/>
<path style="fill:#7A5942;" d="M196,181.6c0,0,24.3,19.1,36.1-3C232.1,178.6,213.6,172.1,196,181.6z"/>
<path style="fill:#F7F0EB;" d="M196,181.6c0,0,24.9,15.5,36.1-3C232.1,178.6,213.2,171.3,196,181.6z"/>
<path style="fill:#604533;" d="M221.6,176.4c-3.9-0.4-8.7-0.4-13.7,0.6c-0.3,0.8-0.5,1.7-0.5,2.7c0,4.1,3.4,7.5,7.5,7.5
	s7.5-3.4,7.5-7.5C222.4,178.5,222.1,177.4,221.6,176.4z"/>
<path style="fill:#91694D;" d="M264.1,178.6c11.2,18.5,36.1,3,36.1,3C282.6,159.7,264.1,178.6,264.1,178.6z"/>
<path style="fill:#7A5942;" d="M264.1,178.6c11.8,22.1,36.1,3,36.1,3C282.6,172.1,264.1,178.6,264.1,178.6z"/>
<path style="fill:#F7F0EB;" d="M264.1,178.6c11.2,18.5,36.1,3,36.1,3C283,171.3,264.1,178.6,264.1,178.6z"/>
<path style="fill:#604533;" d="M288.2,177c-5-1-9.8-1-13.7-0.6c-0.5,1-0.8,2.1-0.8,3.3c0,4.1,3.4,7.5,7.5,7.5s7.5-3.4,7.5-7.5
	C288.8,178.7,288.6,177.8,288.2,177z"/>
<path style="fill:#9E6E4D;" d="M261.3,250.1c-3.8-0.6-13.2,2.5-13.2,2.5s-9.6-3-13.4-2.5c-6.1,0.9-15.1,8-15.1,9.8
	c0,2.8,12.8,6.7,28.5,6.7s28.5-3.9,28.5-6.7C276.6,259.9,267.5,251,261.3,250.1z"/>
<path style="fill:#8C6348;" d="M248.1,257.5c-16.9,0-28.5,2.4-28.5,2.4c0,2.8,12.8,6.7,28.5,6.7s28.5-3.9,28.5-6.7
	C276.6,259.9,265,257.5,248.1,257.5z"/>
<polygon style="fill:#51250D;" points="150.6,121.1 127.3,209.1 131,297.1 186.5,190.9 247.8,82.8 "/>
<path style="fill:#6B3212;" d="M162,141.2c-1.1,7.6,86.1-59.1,86.1-59.1V61.6C206,61.6,170.8,77.4,162,141.2z"/>
<polygon style="fill:#602F0F;" points="150.6,121.1 139.8,161.7 228.1,129.3 248.1,82.1 "/>
<polygon style="fill:#723615;" points="150.6,121.1 164.5,127.2 168.1,114.1 "/>
<path style="fill:#51250D;" d="M363.2,343.6L297,315.5c0,0,0.2,5.5,1.2,10.3c1.3,6.3,3.5,9.6,3.5,9.6l19.4,31.3l53-1.5L363.2,343.6z
	"/>
<polygon style="fill:#602F0F;" points="321,366.8 341,408.8 371.8,408.8 374,365.3 "/>
<polygon style="fill:#B53508;" points="341,408.8 340.4,411.9 341.4,415.1 371.8,414.8 371.8,408.8 "/>
<polygon style="fill:#602F0F;" points="371.8,414.8 341.4,415.1 339.7,454.4 357.2,444.1 376.5,454.9 "/>
<polygon style="fill:#51250D;" points="345.7,121.1 248.5,82.8 309.7,190.9 365.3,297.1 369,209.1 "/>
<path style="fill:#6B3212;" d="M248.2,61.6v20.5c0,0,87.2,66.7,86.1,59.1C325.5,77.4,290.3,61.6,248.2,61.6z"/>
<polygon style="fill:#602F0F;" points="345.7,121.1 248.2,82.1 268.2,129.3 356.4,161.7 "/>
<polygon style="fill:#723615;" points="328.2,114.1 331.7,127.2 345.7,121.1 "/>
<path style="fill:#7F6139;" d="M324.9,106.1c-21.9,7-48.3,11.1-76.8,11.1s-55-4.1-76.8-11.1c-2.7,6.2-5,13.2-6.7,21
	c23.1,8.4,52.1,13.4,83.6,13.4s60.5-5,83.6-13.4C329.9,119.3,327.6,112.3,324.9,106.1z"/>
<path style="fill:#967042;" d="M248.1,125.6c-28.2-3.9-55-12.5-76.8-19.5c-2.7,6.2-5,13.2-6.7,21c23.1,8.4,52.1,13.4,83.6,13.4
	s60.5-5,83.6-13.4C329.9,119.3,280.6,130.1,248.1,125.6z"/>
<g>
	<path style="fill:#876249;" d="M258.9,187.8c0-11.4-7.2-13.3-7.2-13.3c4.4,4.9,4,15.2,4.4,21.7s5.1,14.1,5.1,14.1
		C259.5,206.3,258.9,199.2,258.9,187.8z"/>
	<path style="fill:#876249;" d="M239.8,227.4c0,0,7.7,16.2,16.6,0C256.4,227.4,247.9,235.6,239.8,227.4z"/>
	<path style="fill:#876249;" d="M228.9,219.9c0,0-8.2,15.2,5.1,11.5C233.9,231.5,226.3,229.1,228.9,219.9z"/>
	<path style="fill:#876249;" d="M267.3,219.9c2.5,9.1-5.1,11.5-5.1,11.5C275.5,235.1,267.3,219.9,267.3,219.9z"/>
</g>
<g>
	<path style="fill:#9B6E50;" d="M275.4,222.5c0,0,15.4,25.4,11.1,47.3C286.5,269.9,297.4,246.3,275.4,222.5z"/>
	<path style="fill:#9B6E50;" d="M219.9,222.5c-22,23.8-11.1,47.3-11.1,47.3C204.5,247.9,219.9,222.5,219.9,222.5z"/>
</g>
<g>
</g>
<g>
</g>
<g>
</g>
<g>
</g>
<g>
</g>
<g>
</g>
<g>
</g>
<g>
</g>
<g>
</g>
<g>
</g>
<g>
</g>
<g>
</g>
<g>
</g>
<g>
</g>
<g>
</g>
</svg>
