<?xml version="1.0" encoding="iso-8859-1"?>
<!-- Generator: Adobe Illustrator 19.0.0, SVG Export Plug-In . SVG Version: 6.00 Build 0)  -->
<svg version="1.1" id="Layer_1" xmlns="http://www.w3.org/2000/svg" xmlns:xlink="http://www.w3.org/1999/xlink" x="0px" y="0px"
	 viewBox="0 0 496.2 496.2" style="enable-background:new 0 0 496.2 496.2;" xml:space="preserve">
<path style="fill:#A3D5E0;" d="M248.1,0C111.1,0,0,111.1,0,248.1s111.1,248.1,248.1,248.1s248.1-111.1,248.1-248.1S385.1,0,248.1,0z
	"/>
<path style="fill:#54270E;" d="M338.8,311.6c0-4.3-3.1-8.1-3.3-12.5c-1.7-43.8-9.4-91.4-29.9-129.7l-107.5,5.7
	c43.7,31.6,69.6,80.8,85.1,127.3c1.6,4.8-0.3,10.7,1.1,15.4c1.5,4.9,6.1,8.6,7.3,13.4c1.3,4.9-0.8,11,0.3,15.7
	c1.4,6.1,5.7,10.9,6.8,16.6c0.9,4.7-1.5,10.5-0.9,14.8c0.8,5.5,4.7,9.5,5.3,14.3c0.7,5.6-2,11.8-1.6,16.2c1,11.4,4.3,16.9,4.3,16.9
	l21,0.1c0,0,3-6.9,4.8-18.4c0.7-4.6-0.5-9.7,0.2-15.7c0.5-4.6,3.3-10,3.9-15.4c0.5-4.3-1.5-8.4-1.2-13.1c0.5-6.5,3.5-13.8,3.8-20.9
	c0.2-4.4-2.4-8.5-2.3-13.1C335.9,323.5,338.8,317.4,338.8,311.6z"/>
<g>
	<path style="fill:#381B0D;" d="M326.2,271.1c-1.9,1.8-3.8,3.5-5.9,5.1s-4.2,3-6.5,4.3c-2.2,1.3-4.6,2.5-6.9,3.6
		c-2.4,1.1-4.8,2-7.3,2.9c-4.9,1.7-10,3.2-15.3,4.2c5.4,0.2,10.7-0.6,16-2c5.2-1.4,10.3-3.4,15-6.1c2.3-1.4,4.6-2.9,6.7-4.6
		s4.1-3.6,5.9-5.7c3.6-4.1,6.3-8.9,7.9-14.1C333.1,263.2,329.9,267.4,326.2,271.1z"/>
	<path style="fill:#381B0D;" d="M333.2,303.9c-2.3-1.6-5-2.5-7.6-3.1s-5.3-1-7.8-1.6s-5-1.2-7.5-2.1c-4.9-1.7-9.5-4-13.8-7
		c-4.2-3-8.1-6.6-11.1-11c0.9,2.5,2.3,4.9,4,7c0.8,1.1,1.7,2.1,2.7,3.1s2,1.9,3,2.8c4.2,3.5,9.1,6.1,14.3,7.9c2.6,0.9,5.2,1.6,7.9,2
		c2.7,0.5,5.3,0.7,7.9,1.1s5.1,0.9,7.3,2.1c2.3,1.1,4.3,2.9,6.2,4.8C337.2,307.6,335.4,305.5,333.2,303.9z"/>
</g>
<path style="fill:#CE936B;" d="M287,282.1h-77.8c12.1,36.6,1,53.3,1,53.3l26.9,6.1h22l26.9-6.1C286,335.4,274.9,318.7,287,282.1z"/>
<path style="fill:#54270E;" d="M190.4,169.4c-20.5,38.3-28.1,85.9-29.9,129.7c-0.2,4.4-3.3,8.2-3.3,12.5c0,5.8,2.9,11.9,3,17.5
	c0.1,4.6-2.5,8.7-2.3,13.1c0.3,7.1,3.3,14.4,3.8,20.9c0.3,4.7-1.6,8.8-1.2,13.1c0.6,5.4,3.3,10.8,3.9,15.4c0.7,6-0.5,11.1,0.2,15.7
	c1.8,11.5,4.8,18.4,4.8,18.4l21-0.1c0,0,3.4-5.5,4.3-16.9c0.4-4.3-2.3-10.6-1.6-16.2c0.6-4.8,4.4-8.8,5.3-14.3
	c0.7-4.3-1.7-10.1-0.9-14.8c1-5.7,5.4-10.5,6.8-16.6c1.1-4.7-1-10.8,0.3-15.7c1.2-4.8,5.8-8.5,7.3-13.4c1.4-4.7-0.5-10.6,1.1-15.4
	c15.4-46.4,41.4-95.6,85.1-127.3L190.4,169.4z"/>
<g>
	<path style="fill:#381B0D;" d="M196.3,286.9c-2.5-0.9-4.9-1.8-7.3-2.9c-2.4-1.1-4.7-2.2-6.9-3.6c-2.3-1.3-4.4-2.7-6.5-4.3
		c-2.1-1.5-4-3.3-5.9-5.1c-3.7-3.6-6.9-7.8-9.6-12.5c1.5,5.1,4.3,9.9,7.9,14.1c1.8,2.1,3.8,4,5.9,5.7c2.1,1.7,4.4,3.2,6.7,4.6
		c4.7,2.7,9.8,4.8,15,6.1c5.2,1.4,10.6,2.2,16,2C206.4,290,201.3,288.6,196.3,286.9z"/>
	<path style="fill:#381B0D;" d="M199.5,290.1c-4.2,3-8.9,5.3-13.8,7c-2.4,0.9-4.9,1.5-7.5,2.1c-2.5,0.6-5.2,1-7.8,1.6
		s-5.3,1.5-7.6,3.1s-4.1,3.7-5.5,6c1.9-1.9,3.9-3.6,6.2-4.8c2.3-1.2,4.8-1.7,7.3-2.1c2.6-0.4,5.2-0.6,7.9-1.1c2.7-0.4,5.3-1.1,7.9-2
		c5.2-1.7,10.1-4.4,14.3-7.9c1-0.9,2-1.8,3-2.8c0.9-1,1.8-2,2.7-3.1c1.6-2.2,3.1-4.5,4-7C207.6,283.5,203.7,287.1,199.5,290.1z"/>
</g>
<path style="fill:#DB9A6E;" d="M248.1,77.1c-44,0-79.8,21.2-79.8,113.6c0,31.3,5.6,40.3,14,59.2c18.4,41.6,50.3,56.1,65.8,56.1
	s47.3-14.5,65.8-56.1c8.4-18.9,14-27.9,14-59.2C327.9,98.3,292.1,77.1,248.1,77.1z"/>
<g>
	<path style="fill:#AD7550;" d="M236.2,244.7c-0.4-1.5-0.5-3-0.8-4.7c-0.7,0.8-1,1.7-1.2,2.6c-0.2,0.9-0.2,1.8,0,2.6
		s0.7,1.7,1.4,2.3c0.7,0.7,1.7,1.1,2.8,1.3C237.2,247.4,236.6,246.2,236.2,244.7z"/>
	<path style="fill:#AD7550;" d="M244.7,244.8c-0.3-0.6-0.8-1.1-1.4-1.4c-0.6-0.3-1.3-0.4-2.2-0.2c-0.8,0.1-1.8,0.6-2.6,1.3
		c1.5-0.1,2.7,0.1,3.7,0.6s1.9,1.2,3,1.9C245.2,246.1,245,245.4,244.7,244.8z"/>
	<path style="fill:#AD7550;" d="M255.4,243.2c-0.8-0.2-1.6,0-2.2,0.2c-0.6,0.3-1.1,0.7-1.4,1.4c-0.3,0.6-0.5,1.3-0.4,2.2
		c1.1-0.7,1.9-1.4,3-1.9c1-0.5,2.1-0.7,3.7-0.6C257.2,243.8,256.3,243.4,255.4,243.2z"/>
	<path style="fill:#AD7550;" d="M262,242.6c-0.2-0.9-0.6-1.8-1.2-2.6c-0.3,1.7-0.4,3.2-0.8,4.7s-1,2.7-2.2,4.1
		c1.1-0.2,2.1-0.7,2.8-1.3c0.7-0.7,1.1-1.5,1.4-2.3C262.2,244.3,262.2,243.4,262,242.6z"/>
	<path style="fill:#AD7550;" d="M256.1,213.7c0.1-2.7,0.3-5.3,0.7-7.9c0.4-2.6,1.1-5.2,2.1-7.8c-1.7,2.2-2.9,4.7-3.7,7.4
		c-0.8,2.7-1.1,5.5-1.2,8.2c-0.1,2.8,0.2,5.5,0.7,8.3c0.5,2.7,1.2,5.4,2.4,7.9C256.5,224.4,256,219,256.1,213.7z"/>
	<path style="fill:#AD7550;" d="M240.1,211.4c-0.1-0.9-0.2-1.9-0.5-2.8c-0.2-0.9-0.6-1.8-1.1-2.6c-0.1,1-0.1,1.9-0.1,2.8
		c0,0.9,0.1,1.8,0.1,2.7c0.1,0.9,0.1,1.8,0.3,2.7c0.1,0.9,0.3,1.8,0.6,2.8c0.4-0.9,0.5-1.8,0.6-2.8
		C240.2,213.3,240.2,212.4,240.1,211.4z"/>
</g>
<path style="fill:#472B14;" d="M263.2,204.8c0,0.5,2.3,7.6,19.4,5.3c11.1-1.5,11.8-12.2,11.8-12.2
	C274.1,186.6,263.2,204.8,263.2,204.8z"/>
<path style="fill:#F7F0EB;" d="M263.2,204.8c0.1,1.1,1.1,1.5,2,1.8c24.5,8.5,28.2-7.4,28.2-7.4C273.6,191.7,263.2,204.8,263.2,204.8
	z"/>
<g>
	<ellipse style="fill:#472B14;" cx="280.2" cy="201.5" rx="6.1" ry="6"/>
	<path style="fill:#472B14;" d="M293.8,196.1c-23.5-11.7-30.6,8.7-30.6,8.7s10-12.5,28.9-6.1c0.4,0,0.9,0.2,1.3,0.4
		c4.8,2.6,5.3-1.4,5.3-1.4C296.7,197.7,293.8,196.1,293.8,196.1z"/>
	<path style="fill:#472B14;" d="M304.2,189.3c-0.2-0.6-1.9-2.1-2.9-3c-12.2-11.5-25.7-8.7-33.6-5.8c-3.4,1.3-5.5,1.9-4.6,5.1
		c0.9,2.9,2.9,2.6,3.9,2.4c0.9-0.2,2.5-1,3.7-1.4c17.7-6.4,22.7-1.1,27.1,0.6C302.4,189,304.4,189.9,304.2,189.3z"/>
	<path style="fill:#472B14;" d="M201.9,197.9c0,0,0.7,10.7,11.8,12.2c17.1,2.3,19.4-4.8,19.4-5.3C233,204.8,222.1,186.6,201.9,197.9
		z"/>
</g>
<path style="fill:#F7F0EB;" d="M202.9,199.2c0,0,3.7,15.9,28.2,7.4c0.9-0.3,1.9-0.8,2-1.8C233,204.8,222.6,191.7,202.9,199.2z"/>
<ellipse style="fill:#54341E;" cx="216" cy="201.5" rx="6.1" ry="6"/>
<g>
	<path style="fill:#472B14;" d="M202.4,196.1c0,0-3,1.6-4.8,1.6c0,0,0.4,4,5.3,1.4c0.4-0.2,0.8-0.3,1.3-0.4
		c18.9-6.4,28.9,6.1,28.9,6.1S226,184.3,202.4,196.1z"/>
	<path style="fill:#472B14;" d="M228.5,180.5c-7.9-2.9-21.3-5.7-33.6,5.8c-1,0.9-2.7,2.4-2.9,3s1.7-0.3,6.4-2.2
		c4.4-1.8,9.4-7,27.1-0.6c1.2,0.4,2.7,1.2,3.7,1.4c0.9,0.2,3,0.5,3.9-2.4C234.1,182.4,232,181.8,228.5,180.5z"/>
</g>
<path style="fill:#E24444;" d="M258.5,257.8c-3-0.4-10.4,2.5-10.4,2.5s-7.6-2.9-10.6-2.5c-4.8,0.7-11.9,9-11.9,10.3
	c0,0,10.1,5.2,22.5,5.2s22.5-5.2,22.5-5.2S263.4,258.5,258.5,257.8z"/>
<path style="fill:#D33D3D;" d="M254.2,264.4c-2-0.1-4.5,1.7-6.1,1.7c-1.9,0-4.8-1.8-7-1.6c-13.1,0.8-15.5,3.6-15.5,3.6
	s10.1,9.1,22.5,9.1s22.5-9.1,22.5-9.1S267.9,265.2,254.2,264.4z"/>
<path style="fill:#CE936B;" d="M285.9,335.4c0,0-8.9,17.3-38.1,17.3s-37.5-17.3-37.5-17.3s-7,54.7,37.9,54.7
	S285.9,335.4,285.9,335.4z"/>
<path style="fill:#FFF4E3;" d="M159.5,57.3c-14.5-17.9-22.3-17.9-28-13.3c-5.7,4.7-7.3,12.2,7.3,30.1c14.5,17.9,39.7,39.3,45.4,34.7
	C189.9,104.1,174.1,75.2,159.5,57.3z"/>
<path style="fill:#474746;" d="M159.5,57.3c-14.5-17.9-22.3-17.9-28-13.3c-5.7,4.7-7.3,12.2,7.3,30.1c1.3,1.6,2.7,3.2,4.1,4.8
	c4.3,0,8.4-2.3,12.5-5.6c4-3.3,7.2-6.9,8.1-11.1C162.1,60.5,160.8,58.8,159.5,57.3z"/>
<path style="fill:#CECDCC;" d="M171.7,92.5c-4.2-5.4-8.5-10.7-12.8-16s-8.7-10.6-13.1-15.8c-4.4-5.2-8.9-10.4-13.4-15.5
	c4.1,5.5,8.2,10.9,12.4,16.3c4.2,5.4,8.5,10.7,12.8,16s8.7,10.6,13.1,15.8c4.4,5.2,8.9,10.4,13.4,15.5
	C180.1,103.3,176,97.9,171.7,92.5z"/>
<path style="fill:#FFF4E3;" d="M197.3,59.3c-7.9-21.7-15.2-24.2-22.2-21.7c-6.9,2.5-10.9,9.2-3,30.9s24.6,50.2,31.6,47.6
	C210.6,113.5,205.2,81,197.3,59.3z"/>
<path style="fill:#474746;" d="M197.3,59.3c-7.9-21.7-15.2-24.2-22.2-21.7c-6.9,2.5-10.9,9.2-3,30.9c0.7,1.9,1.5,3.9,2.3,5.9
	c4.1,1.4,8.7,0.6,13.6-1.2c4.9-1.8,9-4.1,11.2-7.8C198.7,63.2,198,61.2,197.3,59.3z"/>
<path style="fill:#CECDCC;" d="M197.3,96.6c-2.2-6.5-4.5-12.9-6.8-19.3c-2.4-6.4-4.7-12.8-7.2-19.2c-2.4-6.4-5-12.7-7.6-19.1
	c2,6.5,4.2,13,6.4,19.5s4.5,12.9,6.8,19.3c2.4,6.4,4.7,12.8,7.2,19.2c2.4,6.4,5,12.7,7.6,19.1C201.7,109.5,199.5,103,197.3,96.6z"/>
<path style="fill:#CE936B;" d="M247.8,317l-37.7,18.4c0,0,16.8,28.1,37.6,28.1s38.2-28.1,38.2-28.1L247.8,317z"/>
<g>
	<path style="fill:#602F0F;" d="M248.1,77.1L248.1,77.1c-48.7,0-82.8,10.1-82.8,102.5c0,0,82.7-45.9,82.7-79.5L248.1,77.1
		L248.1,77.1z"/>
	<path style="fill:#602F0F;" d="M247.9,77.1L247.9,77.1L247.9,77.1l0.1,23c0,33.6,82.7,79.5,82.7,79.5
		C330.6,87.2,296.6,77.1,247.9,77.1z"/>
</g>
<path style="fill:#7F6139;" d="M324.9,106.1c-21.9,7-48.3,11.1-76.8,11.1s-55-4.1-76.8-11.1c-2.7,6.2-5,13.2-6.7,21
	c23.1,8.4,52.1,13.4,83.6,13.4s60.5-5,83.6-13.4C329.9,119.3,327.6,112.3,324.9,106.1z"/>
<path style="fill:#967042;" d="M248.1,125.6c-28.2-3.9-55-12.5-76.8-19.5c-2.7,6.2-5,13.2-6.7,21c23.1,8.4,52.1,13.4,83.6,13.4
	s60.5-5,83.6-13.4C329.9,119.3,280.6,130.1,248.1,125.6z"/>
<path style="fill:#CE936B;" d="M394.8,382.8c-6-22.2-51.6-41.1-108.8-47.3l-37.9,38.8l-37.9-38.8c-57.2,6.2-103,25.1-109,47.3
	c-3.3,12.2-7,35.2-10.1,57.5c38,31.1,85.4,51.1,137.2,55.1c0.1,0,0.3,0,0.4,0c1.9,0.1,3.8,0.3,5.8,0.4c0.3,0,0.6,0,0.9,0
	c1.8,0.1,3.7,0.2,5.6,0.2c0.3,0,0.6,0,0.8,0c2.1,0.1,4.1,0.1,6.2,0.1h0.1h0.1c2.1,0,4.2,0,6.2-0.1c0.3,0,0.6,0,0.8,0
	c1.9-0.1,3.7-0.1,5.6-0.2c0.3,0,0.6,0,0.9,0c1.9-0.1,3.8-0.2,5.8-0.4c0.1,0,0.3,0,0.4,0c51.9-4.1,99.2-24.1,137.2-55.1
	C401.8,417.9,398.1,394.9,394.8,382.8z"/>
<path style="fill:#54270E;" d="M296.1,336.7l-40.2,40.2c-2.1,2.1-4.8,3.2-7.8,3.2s-5.7-1.1-7.8-3.2l-40.2-40.2
	c-0.8,0.1-1.7,0.2-2.5,0.4l41.3,41.3c2.5,2.5,5.7,3.8,9.2,3.8s6.7-1.4,9.2-3.8l41.3-41.3C297.7,336.9,296.9,336.8,296.1,336.7z"/>
<path style="fill:#CC894C;" d="M394.8,382.8c-4.4-16.3-30.2-30.8-66.2-39.9l-80.5,80.5l-80.5-80.5c-36.1,9-62,23.6-66.3,39.9
	c-3.3,12.2-7,35.2-10.1,57.5c38,31.1,85.4,51.1,137.2,55.1c0.1,0,0.3,0,0.4,0c1.9,0.1,3.8,0.3,5.8,0.4c0.3,0,0.6,0,0.9,0
	c1.8,0.1,3.7,0.2,5.6,0.2c0.3,0,0.6,0,0.8,0c2.1,0.1,4.1,0.1,6.2,0.1h0.1h0.1c2.1,0,4.2,0,6.2-0.1c0.3,0,0.6,0,0.8,0
	c1.9-0.1,3.7-0.1,5.6-0.2c0.3,0,0.6,0,0.9,0c1.9-0.1,3.8-0.2,5.8-0.4c0.1,0,0.3,0,0.4,0c51.9-4.1,99.2-24.1,137.2-55.1
	C401.8,417.9,398.1,394.9,394.8,382.8z"/>
<path style="fill:#9B6123;" d="M316.1,340.1l-68,68l-68-68c-4.3,0.9-8.5,1.8-12.5,2.8l80.5,80.5l80.5-80.5
	C324.6,341.9,320.4,340.9,316.1,340.1z"/>
<path style="fill:#602F0F;" d="M184.4,134.8l-19.9-7.6c0,0-45.9,66.9-4.1,171.9C160.4,299.1,209.1,262.1,184.4,134.8z"/>
<polygon style="fill:#54270E;" points="190.3,434.7 169.3,434.7 165.2,472.1 194.5,472.1 "/>
<rect x="169.3" y="425.6" style="fill:#B53508;" width="21" height="9.1"/>
<path style="fill:#54270E;" d="M204.4,331.2c0.7-2.9,2.8-5.4,4.6-8.1h-49.7c0.5,2,0.9,4.1,0.9,6c0.1,4.6-2.5,8.7-2.3,13.1
	c0.3,7.1,3.3,14.4,3.8,20.9c0.3,4.7-1.6,8.8-1.2,13.1c0.6,5.4,3.3,10.8,3.9,15.4c0.7,6-0.5,11.1,0.2,15.7
	c1.8,11.5,4.8,18.4,4.8,18.4l21-0.1c0,0,3.4-5.5,4.3-16.9c0.4-4.3-2.3-10.6-1.6-16.2c0.6-4.8,4.4-8.8,5.3-14.3
	c0.7-4.3-1.7-10.1-0.9-14.8c1-5.7,5.4-10.5,6.8-16.6C205.2,342.2,203.2,336.1,204.4,331.2z"/>
<g>
	<path style="fill:#381B0D;" d="M188.7,358c-2,0.3-3.9,0.5-5.9,0.5s-3.9-0.1-5.8-0.5c-3.8-0.7-7.4-2.2-10.6-4.5
		c-3.2-2.3-5.9-5.2-8.5-8.5c1.5,3.9,3.8,7.5,7.1,10.3c3.2,2.9,7.3,4.8,11.5,5.6c2.1,0.4,4.3,0.5,6.4,0.4c2.1-0.1,4.2-0.5,6.3-1
		c4.1-1.1,7.9-2.8,11.2-5.3C196.6,356.3,192.6,357.4,188.7,358z"/>
	<path style="fill:#381B0D;" d="M191,334.5c-2,0.3-3.9,0.5-5.9,0.5s-3.9-0.1-5.8-0.5c-3.8-0.7-7.4-2.2-10.6-4.5
		c-3.2-2.3-5.9-5.2-8.5-8.5c1.5,3.9,3.8,7.5,7.1,10.3c3.2,2.9,7.3,4.8,11.5,5.6c2.1,0.4,4.3,0.5,6.4,0.4c2.1-0.1,4.2-0.5,6.3-1
		c4.1-1.1,7.9-2.8,11.2-5.3C198.8,332.8,194.9,333.9,191,334.5z"/>
	<path style="fill:#381B0D;" d="M197.9,310.1c-2.3,0.5-4.6,0.9-6.9,1.2c-2.3,0.3-4.6,0.4-6.9,0.4c-2.3,0-4.6-0.3-6.8-0.8
		c-2.2-0.4-4.4-1.2-6.5-2.2c-4.1-2-7.6-5.2-10.5-9.1c1.8,4.5,5.1,8.5,9.4,11.2c2.1,1.3,4.5,2.3,6.9,2.9s4.9,0.9,7.4,1
		c5,0.1,9.9-0.8,14.5-2.3s9.1-3.5,13.1-6.2C207,307.7,202.5,309,197.9,310.1z"/>
	<path style="fill:#381B0D;" d="M187.2,384.8c-3.4,0.5-6.9,0.3-10.1-0.7c-3.2-1-6.2-2.7-8.8-5c-2.7-2.3-5-5-7.3-7.8
		c1.3,3.5,3.2,6.7,5.7,9.5s5.9,5,9.6,6.2c3.7,1.1,7.8,1.1,11.4,0.1c3.7-1,7.1-2.8,9.8-5.3C194.1,383.2,190.7,384.3,187.2,384.8z"/>
	<path style="fill:#381B0D;" d="M189.1,415.6c-1.5-0.4-2.9-0.9-4.2-1.6c-2.7-1.4-5.1-3.2-7.4-5.2c-2.3-2-4.4-4.3-6.4-6.6l-6.1-7.3
		c1,3.1,2.5,6,4.2,8.7c1.8,2.7,3.8,5.3,6.3,7.5s5.3,4.1,8.5,5.1c1.6,0.5,3.3,0.8,4.9,0.9c1.7,0,3.4-0.2,4.8-1
		C192.2,416.2,190.6,416,189.1,415.6z"/>
	<path style="fill:#381B0D;" d="M201.2,315.1c-4.2,3-8.9,5.3-13.8,7c-2.4,0.9-4.9,1.5-7.5,2.1c-2.5,0.6-5.2,1-7.8,1.6
		s-5.3,1.5-7.6,3.1s-4.1,3.7-5.5,6c1.9-1.9,3.9-3.6,6.2-4.8c2.3-1.2,4.8-1.7,7.3-2.1c2.6-0.4,5.2-0.6,7.9-1.1c2.7-0.4,5.3-1.1,7.9-2
		c5.2-1.7,10.1-4.4,14.3-7.9c1-0.9,2-1.8,3-2.8c0.9-1,1.8-2,2.7-3.1c1.6-2.2,3.1-4.5,4-7C209.3,308.5,205.4,312.1,201.2,315.1z"/>
	<path style="fill:#381B0D;" d="M195.2,342.7c-3.6,3.3-7.6,6.2-11.8,8.7c-2.1,1.3-4.2,2.4-6.5,3.5c-2.4,1.3-4.4,2.9-6.3,4.7
		c-3.7,3.5-6.9,7.5-9.6,11.7c3.6-3.5,7.2-7,11.1-10.1c1.9-1.5,4-2.9,6-3.9c1.1-0.5,2.3-1,3.4-1.6c1.1-0.6,2.3-1.2,3.4-1.8
		c4.4-2.5,8.6-5.7,12-9.5c0.9-1,1.7-1.9,2.5-3c0.8-1,1.5-2.1,2.1-3.2c1.3-2.2,2.4-4.5,3-7C202,335.6,198.7,339.3,195.2,342.7z"/>
	<path style="fill:#381B0D;" d="M193.5,366.6c-2.5,3.7-5.3,7.3-8.2,10.6c-3,3.3-6.1,6.5-9.5,9.4s-7,5.6-10.8,8.3
		c4.3-1.5,8.4-3.8,12.2-6.4c3.8-2.7,7.3-5.8,10.4-9.3c1.5-1.8,3-3.6,4.3-5.5s2.6-3.9,3.7-5.9c2.2-4.1,4-8.4,4.9-12.9
		C198.4,359,196,362.9,193.5,366.6z"/>
	<path style="fill:#381B0D;" d="M191.6,390.9c-2.3,3.1-4.7,6.1-7.5,8.8c-2.7,2.7-5.6,5.3-8.6,7.8c-3,2.4-6.2,4.7-9.4,7.1
		c3.8-1.3,7.4-3,10.8-5.2c3.4-2.2,6.6-4.7,9.4-7.6c1.4-1.5,2.7-3,4-4.6c1.2-1.6,2.4-3.3,3.3-5.1c1.9-3.5,3.5-7.4,3.8-11.4
		C195.9,384.4,193.8,387.8,191.6,390.9z"/>
</g>
<path style="fill:#602F0F;" d="M331.5,127.2l-19.9,7.6c-24.7,127.3,24,164.3,24,164.3C377.4,194.1,331.5,127.2,331.5,127.2z"/>
<polygon style="fill:#54270E;" points="326.6,434.7 305.6,434.7 301.5,472.1 330.8,472.1 "/>
<rect x="305.6" y="425.6" style="fill:#B53508;" width="21" height="9.1"/>
<path style="fill:#54270E;" d="M338.2,342.2c0.2-4.4-2.4-8.5-2.3-13.1c0-1.9,0.4-4,0.9-6h-49.7c1.8,2.6,3.8,5.2,4.6,8.1
	c1.3,4.9-0.8,11,0.3,15.7c1.4,6.1,5.7,10.9,6.8,16.6c0.9,4.7-1.5,10.5-0.9,14.8c0.8,5.5,4.7,9.5,5.3,14.3c0.7,5.6-2,11.8-1.6,16.2
	c1,11.4,4.3,16.9,4.3,16.9l21,0.1c0,0,3-6.9,4.8-18.4c0.7-4.6-0.5-9.7,0.2-15.7c0.5-4.6,3.3-10,3.9-15.4c0.5-4.3-1.5-8.4-1.2-13.1
	C334.8,356.6,337.8,349.3,338.2,342.2z"/>
<g>
	<path style="fill:#381B0D;" d="M329.5,353.5c-3.2,2.3-6.8,3.8-10.6,4.5c-1.9,0.4-3.8,0.5-5.8,0.5s-3.9-0.2-5.9-0.5
		c-3.9-0.6-7.8-1.7-11.7-3.1c3.3,2.5,7.2,4.3,11.2,5.3c2,0.6,4.1,0.9,6.3,1c2.1,0.1,4.3,0,6.4-0.4c4.3-0.8,8.3-2.7,11.5-5.6
		c3.2-2.8,5.6-6.4,7.1-10.3C335.5,348.3,332.7,351.2,329.5,353.5z"/>
	<path style="fill:#381B0D;" d="M327.3,330c-3.2,2.3-6.8,3.8-10.6,4.5c-1.9,0.4-3.8,0.5-5.8,0.5s-3.9-0.2-5.9-0.5
		c-3.9-0.6-7.8-1.7-11.7-3.1c3.3,2.5,7.2,4.3,11.2,5.3c2,0.6,4.1,0.9,6.3,1c2.1,0.1,4.3,0,6.4-0.4c4.3-0.8,8.3-2.7,11.5-5.6
		c3.2-2.8,5.6-6.4,7.1-10.3C333.2,324.8,330.5,327.7,327.3,330z"/>
	<path style="fill:#381B0D;" d="M325.3,308.6c-2.1,1-4.2,1.8-6.5,2.2c-2.2,0.5-4.5,0.7-6.8,0.8c-2.3,0.1-4.6-0.1-6.9-0.4
		c-2.3-0.2-4.6-0.7-6.9-1.2c-4.6-1-9.2-2.4-13.7-4c4,2.7,8.5,4.7,13.1,6.2c4.7,1.5,9.6,2.3,14.5,2.3c2.5-0.1,5-0.4,7.4-1
		c2.4-0.7,4.8-1.6,6.9-2.9c4.3-2.6,7.6-6.7,9.4-11.2C332.9,303.4,329.4,306.6,325.3,308.6z"/>
	<path style="fill:#381B0D;" d="M327.7,379.1c-2.7,2.2-5.6,4-8.8,5c-3.2,1-6.7,1.2-10.1,0.7s-6.9-1.5-10.2-3
		c2.7,2.5,6.1,4.3,9.8,5.3c3.7,1,7.7,1,11.4-0.1c3.7-1.1,7.1-3.4,9.6-6.2c2.6-2.8,4.5-6,5.7-9.5
		C332.7,374.1,330.4,376.8,327.7,379.1z"/>
	<path style="fill:#381B0D;" d="M324.9,402.2c-2.1,2.3-4.2,4.6-6.4,6.6c-2.3,2-4.7,3.8-7.4,5.2c-1.4,0.7-2.8,1.2-4.2,1.6
		c-1.5,0.4-3,0.6-4.6,0.5c1.5,0.8,3.2,1,4.8,1c1.7,0,3.3-0.3,4.9-0.9c3.2-1,6.1-2.9,8.5-5.1c2.5-2.2,4.6-4.7,6.3-7.5
		c1.8-2.7,3.2-5.6,4.2-8.7L324.9,402.2z"/>
	<path style="fill:#381B0D;" d="M331.4,328.9c-2.3-1.6-5-2.5-7.6-3.1s-5.3-1-7.8-1.6s-5-1.2-7.5-2.1c-4.9-1.7-9.5-4-13.8-7
		c-4.2-3-8.1-6.6-11.1-11c0.9,2.5,2.3,4.9,4,7c0.8,1.1,1.7,2.1,2.7,3.1s2,1.9,3,2.8c4.2,3.5,9.1,6.1,14.3,7.9c2.6,0.9,5.2,1.6,7.9,2
		c2.7,0.5,5.3,0.7,7.9,1.1s5.1,0.9,7.3,2.1c2.3,1.1,4.3,2.9,6.2,4.8C335.5,332.6,333.7,330.5,331.4,328.9z"/>
	<path style="fill:#381B0D;" d="M325.4,359.5c-1.9-1.7-3.9-3.4-6.3-4.7c-2.3-1.2-4.4-2.3-6.5-3.5c-4.2-2.5-8.2-5.4-11.8-8.7
		c-3.6-3.3-6.9-7.1-9.3-11.5c0.5,2.5,1.7,4.8,3,7c0.7,1.1,1.4,2.2,2.1,3.2c0.8,1,1.6,2,2.5,3c3.5,3.8,7.6,7,12,9.5
		c1.1,0.6,2.2,1.2,3.4,1.8c1.1,0.6,2.4,1.1,3.4,1.6c2.1,1,4.1,2.4,6,3.9c3.9,3,7.5,6.5,11.1,10.1C332.3,367,329.1,363.1,325.4,359.5
		z"/>
	<path style="fill:#381B0D;" d="M320.3,386.7c-3.4-2.9-6.6-6.1-9.5-9.4c-3-3.3-5.7-6.9-8.2-10.6s-4.9-7.6-6.9-11.7
		c0.9,4.5,2.7,8.8,4.9,12.9c1.1,2,2.4,4,3.7,5.9c1.3,1.9,2.8,3.7,4.3,5.5c3.1,3.5,6.6,6.6,10.4,9.3c3.8,2.7,7.9,4.9,12.2,6.4
		C327.3,392.3,323.7,389.6,320.3,386.7z"/>
	<path style="fill:#381B0D;" d="M320.4,407.5c-3-2.4-5.9-5-8.6-7.8c-2.7-2.7-5.2-5.7-7.5-8.8c-2.2-3.2-4.3-6.5-5.8-10.2
		c0.3,4,1.9,7.9,3.8,11.4c1,1.8,2.1,3.5,3.3,5.1c1.2,1.6,2.6,3.1,4,4.6c2.8,2.9,6,5.4,9.4,7.6c3.4,2.1,7,3.9,10.8,5.2
		C326.7,412.2,323.5,409.9,320.4,407.5z"/>
</g>
<path style="fill:#EAE4CC;" d="M247.1,390.6c-5,0-9-0.9-9,4c0,3.6,4.7,21,4.7,22c0,2.4,1.9,10.9,4.3,10.9c0,0,4.3-11.1,4.3-15.9
	c0-3.2,4.7-13.4,4.7-17.1C256.1,389.7,252.1,390.6,247.1,390.6z"/>
<circle style="fill:#E2A379;" cx="247.4" cy="395.4" r="2.4"/>
<path style="fill:#827A75;" d="M247.4,396.5c-1.3,0-2.4-1.1-2.4-1.1c0,1.3,1.1,2.4,2.4,2.4c1.3,0,2.4-1.1,2.4-2.4
	C249.8,395.4,248.7,396.5,247.4,396.5z"/>
<path style="fill:#54270E;" d="M247.4,379c-0.6,0-1,0.4-1,1v14.6c0,0.6,0.4,1,1,1s1-0.4,1-1V380C248.4,379.4,248,379,247.4,379z"/>
<g>
</g>
<g>
</g>
<g>
</g>
<g>
</g>
<g>
</g>
<g>
</g>
<g>
</g>
<g>
</g>
<g>
</g>
<g>
</g>
<g>
</g>
<g>
</g>
<g>
</g>
<g>
</g>
<g>
</g>
</svg>
